<?xml version="1.0" encoding="utf-8"?>
<!-- Generator: Adobe Illustrator 22.0.1, SVG Export Plug-In . SVG Version: 6.00 Build 0)  -->
<svg version="1.1" id="Layer_1" xmlns="http://www.w3.org/2000/svg" xmlns:xlink="http://www.w3.org/1999/xlink" x="0px" y="0px"
	 viewBox="0 0 500 165" style="enable-background:new 0 0 500 165;" xml:space="preserve">
<style type="text/css">
	.st0{fill:#CDD8DD;}
	.st1{fill:#34474F;stroke:#34474F;stroke-width:1.2;stroke-linecap:round;stroke-linejoin:round;stroke-miterlimit:10;}
	.st2{fill:#ECEFF1;stroke:#34474F;stroke-width:4;stroke-linecap:round;stroke-linejoin:round;stroke-miterlimit:10;}
	.st3{fill:#CDD8DD;stroke:#34474F;stroke-width:4;stroke-miterlimit:10;}
	.st4{fill:#FFAA00;}
	.st5{fill:#F3F5F7;stroke:#34474F;stroke-width:4;stroke-linecap:round;stroke-linejoin:round;stroke-miterlimit:10;}
	.st6{fill:#FFAA00;stroke:#34474F;stroke-width:3;stroke-linecap:round;stroke-linejoin:round;stroke-miterlimit:10;}
	.st7{fill:none;stroke:#34474F;stroke-width:4;stroke-linecap:round;stroke-linejoin:round;stroke-miterlimit:10;}
	.st8{fill:#34474F;}
	.st9{fill:#FF6600;}
	.st10{fill:#FFFFFF;}
	.st11{fill:none;stroke:#FF6600;stroke-width:4;stroke-miterlimit:10;}
	.st12{fill:url(#SVGID_1_);}
	.st13{fill:#00CF63;}
	.st14{fill:url(#SVGID_2_);}
	.st15{fill:#FFFFFF;stroke:#34474F;stroke-width:4;stroke-miterlimit:10;}
	.st16{fill:#FFFFFF;stroke:#34474F;stroke-width:4;stroke-linecap:round;stroke-miterlimit:10;}
	.st17{fill:#FFFFFF;stroke:#34474F;stroke-width:4;stroke-linecap:round;stroke-linejoin:round;stroke-miterlimit:10;}
	.st18{fill:none;stroke:#34474F;stroke-width:4;stroke-linecap:round;stroke-miterlimit:10;}
	.st19{stroke:#34474F;stroke-width:4;stroke-linecap:round;stroke-linejoin:round;stroke-miterlimit:10;}
	.st20{fill:#ECEFF1;}
	.st21{fill:#F3F5F7;}
	.st22{clip-path:url(#SVGID_4_);fill:#FF6600;}
	.st23{clip-path:url(#SVGID_4_);fill:#FF6700;}
	.st24{clip-path:url(#SVGID_4_);fill:#FF6800;}
	.st25{clip-path:url(#SVGID_4_);fill:#FF6900;}
	.st26{clip-path:url(#SVGID_4_);fill:#FF6A00;}
	.st27{clip-path:url(#SVGID_4_);fill:#FF6B00;}
	.st28{clip-path:url(#SVGID_4_);fill:#FF6C00;}
	.st29{clip-path:url(#SVGID_4_);fill:#FF6D00;}
	.st30{clip-path:url(#SVGID_4_);fill:#FF6E00;}
	.st31{clip-path:url(#SVGID_4_);fill:#FF6F00;}
	.st32{clip-path:url(#SVGID_4_);fill:#FF7000;}
	.st33{clip-path:url(#SVGID_4_);fill:#FF7100;}
	.st34{clip-path:url(#SVGID_4_);fill:#FF7200;}
	.st35{clip-path:url(#SVGID_4_);fill:#FF7300;}
	.st36{clip-path:url(#SVGID_4_);fill:#FF7400;}
	.st37{clip-path:url(#SVGID_4_);fill:#FF7500;}
	.st38{clip-path:url(#SVGID_4_);fill:#FF7600;}
	.st39{clip-path:url(#SVGID_4_);fill:#FF7700;}
	.st40{clip-path:url(#SVGID_4_);fill:#FF7800;}
	.st41{clip-path:url(#SVGID_4_);fill:#FF7900;}
	.st42{clip-path:url(#SVGID_4_);fill:#FF7A00;}
	.st43{clip-path:url(#SVGID_4_);fill:#FF7B00;}
	.st44{clip-path:url(#SVGID_4_);fill:#FF7C00;}
	.st45{clip-path:url(#SVGID_4_);fill:#FF7D00;}
	.st46{clip-path:url(#SVGID_4_);fill:#FF7E00;}
	.st47{clip-path:url(#SVGID_4_);fill:#FF7F00;}
	.st48{clip-path:url(#SVGID_4_);fill:#FF8000;}
	.st49{clip-path:url(#SVGID_4_);fill:#FF8100;}
	.st50{clip-path:url(#SVGID_4_);fill:#FF8200;}
	.st51{clip-path:url(#SVGID_4_);fill:#FF8300;}
	.st52{clip-path:url(#SVGID_4_);fill:#FF8400;}
	.st53{clip-path:url(#SVGID_4_);fill:#FF8500;}
	.st54{clip-path:url(#SVGID_4_);fill:#FF8600;}
	.st55{clip-path:url(#SVGID_4_);fill:#FF8800;}
	.st56{clip-path:url(#SVGID_4_);fill:#FF8900;}
	.st57{clip-path:url(#SVGID_4_);fill:#FF8A00;}
	.st58{clip-path:url(#SVGID_4_);fill:#FF8B00;}
	.st59{clip-path:url(#SVGID_4_);fill:#FF8C00;}
	.st60{clip-path:url(#SVGID_4_);fill:#FF8D00;}
	.st61{clip-path:url(#SVGID_4_);fill:#FF8E00;}
	.st62{clip-path:url(#SVGID_4_);fill:#FF8F00;}
	.st63{clip-path:url(#SVGID_4_);fill:#FF9000;}
	.st64{clip-path:url(#SVGID_4_);fill:#FF9100;}
	.st65{clip-path:url(#SVGID_4_);fill:#FF9200;}
	.st66{clip-path:url(#SVGID_4_);fill:#FF9300;}
	.st67{clip-path:url(#SVGID_4_);fill:#FF9500;}
	.st68{clip-path:url(#SVGID_4_);fill:#FF9600;}
	.st69{clip-path:url(#SVGID_4_);fill:#FF9700;}
	.st70{clip-path:url(#SVGID_4_);fill:#FF9800;}
	.st71{clip-path:url(#SVGID_4_);fill:#FF9900;}
	.st72{clip-path:url(#SVGID_4_);fill:#FF9A00;}
	.st73{clip-path:url(#SVGID_4_);fill:#FF9B00;}
	.st74{clip-path:url(#SVGID_4_);fill:#FF9C00;}
	.st75{clip-path:url(#SVGID_4_);fill:#FF9D00;}
	.st76{clip-path:url(#SVGID_4_);fill:#FF9F00;}
	.st77{clip-path:url(#SVGID_4_);fill:#FFA000;}
	.st78{clip-path:url(#SVGID_4_);fill:#FFA100;}
	.st79{clip-path:url(#SVGID_4_);fill:#FFA200;}
	.st80{clip-path:url(#SVGID_4_);fill:#FFA300;}
	.st81{clip-path:url(#SVGID_4_);fill:#FFA400;}
	.st82{clip-path:url(#SVGID_4_);fill:#FFA500;}
	.st83{clip-path:url(#SVGID_4_);fill:#FFA700;}
	.st84{clip-path:url(#SVGID_4_);fill:#FFA800;}
	.st85{clip-path:url(#SVGID_4_);fill:#FFA900;}
	.st86{clip-path:url(#SVGID_4_);fill:#FFAA00;}
	.st87{clip-path:url(#SVGID_6_);fill:#FF7700;}
	.st88{clip-path:url(#SVGID_6_);fill:#FF7800;}
	.st89{clip-path:url(#SVGID_6_);fill:#FF7900;}
	.st90{clip-path:url(#SVGID_6_);fill:#FF7A00;}
	.st91{clip-path:url(#SVGID_6_);fill:#FF7C00;}
	.st92{clip-path:url(#SVGID_6_);fill:#FF7D00;}
	.st93{clip-path:url(#SVGID_6_);fill:#FF7E00;}
	.st94{clip-path:url(#SVGID_6_);fill:#FF7F00;}
	.st95{clip-path:url(#SVGID_6_);fill:#FF8000;}
	.st96{clip-path:url(#SVGID_6_);fill:#FF8200;}
	.st97{clip-path:url(#SVGID_6_);fill:#FF8300;}
	.st98{clip-path:url(#SVGID_6_);fill:#FF6F00;}
	.st99{clip-path:url(#SVGID_6_);fill:#FF7000;}
	.st100{clip-path:url(#SVGID_6_);fill:#FF7100;}
	.st101{clip-path:url(#SVGID_6_);fill:#FF7200;}
	.st102{clip-path:url(#SVGID_6_);fill:#FF7300;}
	.st103{clip-path:url(#SVGID_6_);fill:#FF7400;}
	.st104{clip-path:url(#SVGID_6_);fill:#FF7500;}
	.st105{clip-path:url(#SVGID_6_);fill:#FF7600;}
	.st106{clip-path:url(#SVGID_6_);fill:#FF9B00;}
	.st107{clip-path:url(#SVGID_6_);fill:#FF9D00;}
	.st108{clip-path:url(#SVGID_6_);fill:#FF9F00;}
	.st109{clip-path:url(#SVGID_6_);fill:#FFA100;}
	.st110{clip-path:url(#SVGID_6_);fill:#FFA200;}
	.st111{clip-path:url(#SVGID_6_);fill:#FFA400;}
	.st112{clip-path:url(#SVGID_6_);fill:#FFA600;}
	.st113{clip-path:url(#SVGID_6_);fill:#FFA800;}
	.st114{clip-path:url(#SVGID_6_);fill:#FFAA00;}
	.st115{clip-path:url(#SVGID_6_);fill:#FF8400;}
	.st116{clip-path:url(#SVGID_6_);fill:#FF8500;}
	.st117{clip-path:url(#SVGID_6_);fill:#FF8700;}
	.st118{clip-path:url(#SVGID_6_);fill:#FF8800;}
	.st119{clip-path:url(#SVGID_6_);fill:#FF8A00;}
	.st120{clip-path:url(#SVGID_6_);fill:#FF8B00;}
	.st121{clip-path:url(#SVGID_6_);fill:#FF8D00;}
	.st122{clip-path:url(#SVGID_6_);fill:#FF8E00;}
	.st123{clip-path:url(#SVGID_6_);fill:#FF9000;}
	.st124{clip-path:url(#SVGID_6_);fill:#FF9100;}
	.st125{clip-path:url(#SVGID_6_);fill:#FF9300;}
	.st126{clip-path:url(#SVGID_6_);fill:#FF9400;}
	.st127{clip-path:url(#SVGID_6_);fill:#FF9600;}
	.st128{clip-path:url(#SVGID_6_);fill:#FF9800;}
	.st129{clip-path:url(#SVGID_6_);fill:#FF6B00;}
	.st130{clip-path:url(#SVGID_6_);fill:#FF6C00;}
	.st131{clip-path:url(#SVGID_6_);fill:#FF6D00;}
	.st132{clip-path:url(#SVGID_6_);fill:#FF6E00;}
	.st133{clip-path:url(#SVGID_6_);fill:#FF6600;}
	.st134{clip-path:url(#SVGID_6_);fill:#FF6700;}
	.st135{clip-path:url(#SVGID_6_);fill:#FF6800;}
	.st136{clip-path:url(#SVGID_6_);fill:#FF6900;}
	.st137{clip-path:url(#SVGID_6_);fill:#FF6A00;}
	.st138{fill:#F2F2F2;}
	.st139{clip-path:url(#SVGID_8_);}
	.st140{clip-path:url(#SVGID_10_);fill:#344750;}
	.st141{clip-path:url(#SVGID_12_);}
	.st142{clip-path:url(#SVGID_14_);fill:#344750;}
	.st143{clip-path:url(#SVGID_16_);}
	.st144{clip-path:url(#SVGID_18_);fill:#FF6600;}
	.st145{clip-path:url(#SVGID_20_);}
	.st146{clip-path:url(#SVGID_22_);fill:#344750;}
	.st147{clip-path:url(#SVGID_24_);}
	.st148{clip-path:url(#SVGID_26_);fill:#FF6600;}
	.st149{clip-path:url(#SVGID_28_);}
	.st150{clip-path:url(#SVGID_30_);fill:#344750;}
</style>
<g>
	<g>
		<path class="st4" d="M59,54.2c-6,0-10.3,2.1-13.8,4.8V57c0-1-0.8-1.9-1.9-1.9H22.9c-1,0-1.9,0.8-1.9,1.9v11.1c0,1,0.8,1.9,1.9,1.9
			h5.9v50.7h-5.9c-1,0-1.9,0.8-1.9,1.9v10.8c0,1,0.8,1.9,1.9,1.9h29.5c1,0,1.9-0.8,1.9-1.9v-10.8c0-1-0.8-1.9-1.9-1.9h-6.7v-11.5
			c3.9,2.3,8.1,3.4,12.4,3.4c15,0,26.8-12.9,26.8-29.5C85,66.4,74.1,54.2,59,54.2z M45.7,73.5c3.5-2.9,6.7-4.3,10.4-4.3
			c6.9,0,11.6,5.6,11.6,14c0,9.8-6,14.3-11.6,14.3c-3.6,0-7.1-1.1-10.4-3.2V73.5z"/>
	</g>
	<g>
		<path class="st4" d="M117.1,97.1h-5.9V57c0-1-0.8-1.9-1.9-1.9H88c-1,0-1.9,0.8-1.9,1.9v11.1c0,1,0.8,1.9,1.9,1.9h6.2v27.1H88
			c-1,0-1.9,0.8-1.9,1.9v10.8c0,1,0.8,1.9,1.9,1.9h29c1,0,1.9-0.8,1.9-1.9V98.9C118.9,97.9,118.1,97.1,117.1,97.1z"/>
	</g>
	<g>
		<path class="st4" d="M101.3,50.8c5.8,0,10.8-4.8,10.8-10.6c0-5.8-4.7-10.6-10.5-10.6c-5.8,0-10.8,4.8-10.8,10.6
			C90.7,46.1,95.5,50.8,101.3,50.8z"/>
	</g>
	<g>
		<path class="st4" d="M186.9,97.1H181V73.6c0-4.6-1-8.6-3.1-11.9c-3.3-5-8.5-7.6-15.2-7.6c-6.8,0-12,3.1-16.5,7V57
			c0-1-0.8-1.9-1.9-1.9h-20.5c-1,0-1.9,0.8-1.9,1.9v11.1c0,1,0.8,1.9,1.9,1.9h5.9v27.1h-5.9c-1,0-1.9,0.8-1.9,1.9v10.8
			c0,1,0.8,1.9,1.9,1.9H152c1,0,1.9-0.8,1.9-1.9V98.9c0-1-0.8-1.9-1.9-1.9h-5.3V75c3.1-2.5,7.5-5.2,11.7-5.2c3.2,0,4.3,1.4,4.9,2.5
			c0.5,1,0.9,2.6,0.9,4.5v20.2h-5.3c-1,0-1.9,0.8-1.9,1.9v10.8c0,1,0.8,1.9,1.9,1.9h28.2c1,0,1.9-0.8,1.9-1.9V98.9
			C188.8,97.9,188,97.1,186.9,97.1z"/>
	</g>
	<g>
		<path class="st4" d="M246.4,54.2c-6,0-10.3,2.1-13.8,4.8V57c0-1-0.8-1.9-1.9-1.9h-20.5c-1,0-1.9,0.8-1.9,1.9v11.1
			c0,1,0.8,1.9,1.9,1.9h5.9v50.7h-5.9c-1,0-1.9,0.8-1.9,1.9v10.8c0,1,0.8,1.9,1.9,1.9h29.5c1,0,1.9-0.8,1.9-1.9v-10.8
			c0-1-0.8-1.9-1.9-1.9h-6.7v-11.5c3.9,2.3,8.1,3.4,12.4,3.4c15,0,26.8-12.9,26.8-29.5C272.3,66.4,261.4,54.2,246.4,54.2z
			 M233.1,73.5c3.5-2.9,6.7-4.3,10.4-4.3c6.9,0,11.6,5.6,11.6,14c0,9.8-6,14.3-11.6,14.3c-3.6,0-7.1-1.1-10.4-3.2V73.5z"/>
	</g>
	<g>
		<path class="st4" d="M305.6,54.2c-17.1,0-29.9,12.6-29.9,29.2c0,14.5,10.3,29.2,29.9,29.2c17.1,0,29.9-12.6,29.9-29.2
			C335.5,68.9,325.2,54.2,305.6,54.2z M305.6,97.9c-7.5,0-12.7-6-12.7-14.5s5.2-14.5,12.7-14.5c7.5,0,12.7,6,12.7,14.5
			S313,97.9,305.6,97.9z"/>
	</g>
	<g>
		<path class="st4" d="M350.9,50.8c5.9,0,10.8-4.8,10.8-10.6c0-5.8-4.7-10.6-10.6-10.6c-5.8,0-10.8,4.8-10.8,10.6
			C340.3,46.1,345,50.8,350.9,50.8z"/>
	</g>
	<g>
		<path class="st4" d="M366.6,97.1h-5.9V57c0-1-0.8-1.9-1.9-1.9h-21.2c-1,0-1.9,0.8-1.9,1.9v11.1c0,1,0.8,1.9,1.9,1.9h6.2v27.1h-6.2
			c-1,0-1.9,0.8-1.9,1.9v10.8c0,1,0.8,1.9,1.9,1.9h29c1,0,1.9-0.8,1.9-1.9V98.9C368.5,97.9,367.7,97.1,366.6,97.1z"/>
	</g>
	<g>
		<path class="st4" d="M437.1,97.1h-5.9V73.6c0-4.6-1-8.6-3.1-11.9c-3.3-5-8.5-7.6-15.2-7.6c-6.8,0-12,3.1-16.5,7V57
			c0-1-0.8-1.9-1.9-1.9H374c-1,0-1.9,0.8-1.9,1.9v11.1c0,1,0.8,1.9,1.9,1.9h5.9v27.1H374c-1,0-1.9,0.8-1.9,1.9v10.8
			c0,1,0.8,1.9,1.9,1.9h28.2c1,0,1.9-0.8,1.9-1.9V98.9c0-1-0.8-1.9-1.9-1.9h-5.3V75c3.1-2.5,7.5-5.2,11.7-5.2c2.4,0,4,0.8,4.8,2.5
			c0.5,1,0.9,2.6,0.9,4.5v20.2H409c-1,0-1.9,0.8-1.9,1.9v10.8c0,1,0.8,1.9,1.9,1.9h28.2c1,0,1.9-0.8,1.9-1.9V98.9
			C439,97.9,438.2,97.1,437.1,97.1z"/>
	</g>
	<g>
		<path class="st4" d="M478.2,94.8c-0.6-0.4-1.3-0.5-1.9-0.2c-2.6,1.2-6.3,2.6-9.6,2.6c-2,0-3.3-0.5-3.9-1.6
			c-0.4-0.7-0.6-1.4-0.6-2.9V70h14.1c1,0,1.9-0.8,1.9-1.9V57c0-1-0.8-1.9-1.9-1.9h-14.1V40.3c0-0.6-0.3-1.2-0.8-1.6
			c-0.5-0.4-1.2-0.4-1.8-0.2l-13,5.7c-0.7,0.3-1.1,1-1.1,1.7v9.2h-8.4c-1,0-1.9,0.8-1.9,1.9v11.1c0,1,0.8,1.9,1.9,1.9h8.4v25.2
			c0,3.7,0.7,6.8,2,9.2c2.8,5.4,8.3,8.2,15.9,8.2c4.5,0,9.1-1.1,13.5-3.3c0.6-0.3,1-0.9,1-1.5l1.1-11.3
			C479,95.8,478.7,95.1,478.2,94.8z"/>
	</g>
</g>
<g>
	<g>
		<g>
			<defs>
				<path id="SVGID_23_" d="M1748.8-65.5c0-0.5-0.2-0.9-0.7-1.2c-0.5-0.3-1.3-0.5-2.4-0.8c-3.7-0.8-5.5-2.3-5.5-4.7
					c0-1.4,0.6-2.5,1.7-3.4s2.6-1.4,4.4-1.4c2,0,3.5,0.5,4.7,1.4c1.2,0.9,1.8,2.1,1.8,3.6h-4.1c0-0.6-0.2-1.1-0.6-1.5
					c-0.4-0.4-1-0.6-1.8-0.6c-0.7,0-1.2,0.2-1.6,0.5c-0.4,0.3-0.6,0.7-0.6,1.2c0,0.5,0.2,0.8,0.6,1.1c0.4,0.3,1.2,0.5,2.2,0.7
					c1,0.2,1.9,0.4,2.6,0.7c2.2,0.8,3.3,2.2,3.3,4.1c0,1.4-0.6,2.5-1.8,3.4c-1.2,0.9-2.8,1.3-4.7,1.3c-1.3,0-2.4-0.2-3.4-0.7
					c-1-0.5-1.8-1.1-2.4-1.9c-0.6-0.8-0.9-1.7-0.9-2.6h3.9c0,0.7,0.3,1.3,0.8,1.7c0.5,0.4,1.2,0.6,2,0.6c0.8,0,1.4-0.1,1.8-0.4
					C1748.6-64.6,1748.8-65,1748.8-65.5z M1733.4-62.8c-1,1.2-2.4,1.8-4.2,1.8c-1.6,0-2.9-0.5-3.8-1.4c-0.9-0.9-1.3-2.3-1.3-4.2
					v-10.1h4.1v9.9c0,1.6,0.7,2.4,2.2,2.4c1.4,0,2.4-0.5,2.9-1.4v-10.9h4.1v15.4h-3.9L1733.4-62.8z M1722.3-72.8
					c-0.6-0.1-1.1-0.1-1.5-0.1c-1.6,0-2.6,0.5-3.1,1.6v10.1h-4.1v-15.4h3.9l0.1,1.8c0.8-1.4,2-2.1,3.4-2.1c0.5,0,0.9,0.1,1.3,0.2
					L1722.3-72.8z M1708.7-80.4v3.8h2.6v3h-2.6v7.7c0,0.6,0.1,1,0.3,1.2c0.2,0.2,0.6,0.4,1.3,0.4c0.5,0,0.9,0,1.2-0.1v3.1
					c-0.8,0.2-1.6,0.4-2.5,0.4c-2.9,0-4.3-1.5-4.4-4.4v-8.3h-2.2v-3h2.2v-3.8H1708.7z M1696-80.6c0-0.6,0.2-1.1,0.6-1.5
					c0.4-0.4,1-0.6,1.7-0.6c0.7,0,1.3,0.2,1.7,0.6s0.6,0.9,0.6,1.5c0,0.6-0.2,1.1-0.6,1.5c-0.4,0.4-1,0.6-1.7,0.6
					c-0.7,0-1.2-0.2-1.7-0.6C1696.2-79.5,1696-80,1696-80.6z M1700.4-61.2h-4.1v-15.4h4.1V-61.2z M1693.5-68.1c-0.2,2.2-1,4-2.5,5.3
					c-1.5,1.3-3.4,1.9-5.9,1.9c-2.7,0-4.7-0.9-6.3-2.7c-1.5-1.8-2.3-4.2-2.3-7.4v-1.3c0-2,0.4-3.7,1.1-5.3c0.7-1.5,1.7-2.7,3-3.5
					c1.3-0.8,2.8-1.2,4.5-1.2c2.4,0,4.3,0.6,5.8,1.9c1.5,1.3,2.3,3.1,2.5,5.4h-4.3c-0.1-1.3-0.5-2.3-1.1-2.9
					c-0.6-0.6-1.6-0.9-2.9-0.9c-1.4,0-2.5,0.5-3.2,1.5c-0.7,1-1.1,2.6-1.1,4.7v1.6c0,2.2,0.3,3.9,1,4.9c0.7,1,1.7,1.5,3.2,1.5
					c1.3,0,2.3-0.3,2.9-0.9c0.6-0.6,1-1.5,1.1-2.8H1693.5z"/>
			</defs>
			<use xlink:href="#SVGID_23_"  style="overflow:visible;fill-rule:evenodd;clip-rule:evenodd;fill:#FF6600;"/>
			<clipPath id="SVGID_1_">
				<use xlink:href="#SVGID_23_"  style="overflow:visible;"/>
			</clipPath>
			<g style="clip-path:url(#SVGID_1_);">
				<defs>
					<rect id="SVGID_25_" x="443" y="-680.7" width="2314.4" height="1788.8"/>
				</defs>
				<use xlink:href="#SVGID_25_"  style="overflow:visible;fill:#FF6600;"/>
				<clipPath id="SVGID_2_">
					<use xlink:href="#SVGID_25_"  style="overflow:visible;"/>
				</clipPath>
			</g>
		</g>
	</g>
</g>
</svg>
